<?xml version="1.0" encoding="UTF-8"?>
<svg xmlns="http://www.w3.org/2000/svg"
     version="1.2"
     baseProfile="tiny-ps"
     viewBox="0 0 283.4646 283.4646">
  <title>nopasaran-ch-bimi</title>

  <!-- Fond carré blanc -->
  <rect x="0" y="0" width="283.4646" height="283.4646" fill="#ffffff"/>

  <!-- Cercle blanc central -->
  <circle cx="141.7323" cy="141.7323" r="128.8754" fill="#ffffff"/>

  <!-- Symbole central -->
  <path fill="#1e2939" d="M226.5193,212.0489c-8.7074-.3422-17.2686-4.9747-17.2686-4.9747-.9842-.3443-3.4097-2.9819-10.2792-7.9931-3.5335-2.5777-8.3807-12.8029-7.0018-25.4925.128.288.2576.5757.4079.8576.9191,1.7239,2.2245,3.2254,3.7174,4.4855-.9818-7.2658-1.8397-15.1832,1.9435-21.4635,1.2705,4.0761,1.9132,8.3472,1.8984,12.6167,3.2061-3.8961,3.7698-9.3075,3.6553-14.3517-.0715-3.1478-.3491-6.3352-.2328-9.472.5414-1.0833,1.1088-2.2405,1.6788-3.4362,1.0339,2.4569,2.0678,4.9137,3.1017,7.3706,1.7087-4.9192,1.1142-10.1073.4037-15.3456,1.7359-4.439,2.7263-8.2188,1.6222-9.2747-.0805-.077-.1824-.1317-.274-.1972,1.3748.56,6.3707-.5128,4.9551-1.8936-4.0411-4.1655-8.1889-8.0797-12.4434-11.7425l4.0937-2.2257c1.2515-.5797,4.4745-2.9601,1.8197-3.4851-2.822.5285-5.6212.4184-8.3664-.076,2.3257-1.0872,3.9928-2.6907,3.9165-4.4585-3.5321.8936-7.1604,1.7871-10.8496,2.4238-.9444-.3749-1.8814-.7679-2.8009-1.1919-.4738-.2519-.9408-.4967-1.4103-.7443,3.7719-1.843,5.5875-5.1837,4.0362-8.0161-3.2707,1.9539-7.1789,3.388-11.3996,4.3217-9.5789-4.4658-18.8671-7.0335-30.353-4.2951-1.7524.4178-3.4462.9701-5.0692,1.63-2.3884.0135-4.7725.248-7.0032,1.067-5.9162,2.1724-9.5868,7.9062-13.7026,12.6791-1.4992,1.7387-3.1048,3.3856-4.8047,4.9286,1.7941-.1434,3.5882-.2869,5.3822-.4303,1.0925-.0874,2.224-.1862,3.1795-.723.7089-.3983,1.3238-.8872,1.9077-1.4066-.0501.2361-.0838.4788-.125.7185-5.0896,5.8254-8.3666,14.0617-15.7776,15.7619,5.7976.0326,11.5455-2.3696,15.655-6.4543-1.2599,2.9411-1.2968,6.7134.3159,10.3975-.8647,1.0416-1.6397,2.3466-2.8461,3.4334-2.6946,2.4271-4.0372,3.7296-5.5643,5.2877-1.0026,1.0229-1.0535,3.0174.4973,4.9499.542.6754,1.7293.9794,1.712,2.5432-.0278,2.5265-.2686,2.0352-.8545,3.2097-.5283,1.0591-.4983,1.1612-.2099,2.946.7839,2.2046.2591,1.8466-.2918,3.8188-.273.9769,1.7107,3.8566,1.7584,4.8586s-2.8037,4.4041-.4732,7.8878c2.3306,3.4836,9.4412,2.1973,18.3208,4.8694,5.5352,3.1494.5304,28.4882-.3089,29.4019l-28.6954-21.1093c-1.5763-1.1588-6.0124-5.8389-8.3608-8.3983l-12.7887-17.1801-6.3501-15.3961c1.0342-11.1976,2.3898-11.2283,5.2054-16.9544l11.8697-22.4314c.5937-.8378.6326-1.7673.1164-2.7885l14.8549-20.0472c4.5855.2885,9.825-.2389,14.2434,1.6425l4.9626.668,18.1806-5.9378c.8667-.7059,2.3775-5.6584,2.2232-6.7072-.475-.8012-2.5776-4.4904-3.0542-5.0601,1.239-2.2729,9.1793-6.426,5.8082-9.5413-6.49-7.1104-10.6348-11.4632-12.5989-13.9335-1.9641-2.4704-6.3289-2.4284-7.7595-2.5767,0,0-7.0934-4.5272-9.1773-3.9815-2.084.5458-4.8153,3.611-6.3453,5.0538-2.0532-.0598-3.9923.1556-5.8172.6461-12.2102,12.8196-24.4415,25.5776-36.694,38.2742-1.2896-1.0157-4.4208-1.3753-5.628-1.316-2.8331,2.5446-3.9417,4.7737-7.0916,6.9247-15.5696,19.0493-23.5679,31.6377-29.6757,56.7389,3.4217,14.2471,11.4422,30.6288,17.6012,43.8739,4.9626,10.6723,11.0392,21.6485,16.7762,31.572,0,0,19.2152,41.243,19.6127,43.8131.3976,2.5701,27.9515,12.0783,54.8124,12.0783s65.3203-16.7964,74.1484-24.4313c8.8281-7.6347,22.5617-19.1165,26.6394-23.3156,2.3052-2.3739-11.1173-13.0216-23.2861-13.5Z"/>

  <!-- Anneau extérieur -->
  <path fill="#12101b" d="M141.7323,12.8569c71.1759,0,128.8754,57.6995,128.8754,128.8754s-57.6995,128.8754-128.8754,128.8754S12.8569,212.9082,12.8569,141.7323,70.5564,12.8569,141.7323,12.8569M141.7323,1.7992c-37.3775,0-72.5177,14.5556-98.9476,40.9855C16.3548,69.2146,1.7992,104.3548,1.7992,141.7323s14.5556,72.5177,40.9855,98.9476c26.4299,26.4299,61.5701,40.9855,98.9476,40.9855s72.5177-14.5556,98.9476-40.9855c26.4299-26.4299,40.9855-61.5701,40.9855-98.9476s-14.5556-72.5177-40.9855-98.9476C214.25,16.3548,179.1098,1.7992,141.7323,1.7992h0Z"/>
</svg>
